%TF.GenerationSoftware,KiCad,Pcbnew,8.0.6*%
%TF.CreationDate,2025-05-11T15:10:07-04:00*%
%TF.ProjectId,logicprobetool,6c6f6769-6370-4726-9f62-65746f6f6c2e,rev?*%
%TF.SameCoordinates,Original*%
%TF.FileFunction,Drillmap*%
%TF.FilePolarity,Positive*%
%FSLAX45Y45*%
G04 Gerber Fmt 4.5, Leading zero omitted, Abs format (unit mm)*
G04 Created by KiCad (PCBNEW 8.0.6) date 2025-05-11 15:10:07*
%MOMM*%
%LPD*%
G01*
G04 APERTURE LIST*
%ADD10C,0.050000*%
%ADD11C,0.200000*%
%ADD12C,0.100000*%
G04 APERTURE END LIST*
D10*
X3601720Y-2326640D02*
X8582660Y-2326640D01*
X8582660Y-4889500D01*
X3601720Y-4889500D01*
X3601720Y-2326640D01*
D11*
D12*
X4430000Y-3292080D02*
X4460000Y-3322080D01*
X4460000Y-3292080D02*
X4430000Y-3322080D01*
X4546840Y-2956800D02*
X4576840Y-2986800D01*
X4576840Y-2956800D02*
X4546840Y-2986800D01*
X4596680Y-3243820D02*
X4626680Y-3273820D01*
X4626680Y-3243820D02*
X4596680Y-3273820D01*
X4943080Y-3759440D02*
X4973080Y-3789440D01*
X4973080Y-3759440D02*
X4943080Y-3789440D01*
X5303760Y-3586720D02*
X5333760Y-3616720D01*
X5333760Y-3586720D02*
X5303760Y-3616720D01*
X5390120Y-2745980D02*
X5420120Y-2775980D01*
X5420120Y-2745980D02*
X5390120Y-2775980D01*
X5420600Y-2946640D02*
X5450600Y-2976640D01*
X5450600Y-2946640D02*
X5420600Y-2976640D01*
X7638020Y-2855200D02*
X7668020Y-2885200D01*
X7668020Y-2855200D02*
X7638020Y-2885200D01*
X7555600Y-2725420D02*
G75*
G02*
X7495600Y-2725420I-30000J0D01*
G01*
X7495600Y-2725420D02*
G75*
G02*
X7555600Y-2725420I30000J0D01*
G01*
X7555600Y-2760420D02*
X7555600Y-2690420D01*
X7495600Y-2690420D02*
G75*
G02*
X7555600Y-2690420I30000J0D01*
G01*
X7495600Y-2690420D02*
X7495600Y-2760420D01*
X7495600Y-2760420D02*
G75*
G03*
X7555600Y-2760420I30000J0D01*
G01*
X8255600Y-2725420D02*
G75*
G02*
X8195600Y-2725420I-30000J0D01*
G01*
X8195600Y-2725420D02*
G75*
G02*
X8255600Y-2725420I30000J0D01*
G01*
X8195600Y-2690420D02*
X8195600Y-2760420D01*
X8255600Y-2760420D02*
G75*
G02*
X8195600Y-2760420I-30000J0D01*
G01*
X8255600Y-2760420D02*
X8255600Y-2690420D01*
X8255600Y-2690420D02*
G75*
G03*
X8195600Y-2690420I-30000J0D01*
G01*
X7625600Y-2952920D02*
X7625600Y-3037920D01*
X7583100Y-2995420D02*
X7668100Y-2995420D01*
X8125600Y-2952920D02*
X8125600Y-3037920D01*
X8083100Y-2995420D02*
X8168100Y-2995420D01*
X4472736Y-4061256D02*
X4472736Y-3990544D01*
X4402024Y-3990544D01*
X4402024Y-4061256D01*
X4472736Y-4061256D01*
D11*
X3859997Y-5203484D02*
X3859997Y-5003484D01*
X3859997Y-5003484D02*
X3907616Y-5003484D01*
X3907616Y-5003484D02*
X3936187Y-5013008D01*
X3936187Y-5013008D02*
X3955235Y-5032055D01*
X3955235Y-5032055D02*
X3964759Y-5051103D01*
X3964759Y-5051103D02*
X3974282Y-5089198D01*
X3974282Y-5089198D02*
X3974282Y-5117770D01*
X3974282Y-5117770D02*
X3964759Y-5155865D01*
X3964759Y-5155865D02*
X3955235Y-5174912D01*
X3955235Y-5174912D02*
X3936187Y-5193960D01*
X3936187Y-5193960D02*
X3907616Y-5203484D01*
X3907616Y-5203484D02*
X3859997Y-5203484D01*
X4059997Y-5203484D02*
X4059997Y-5070150D01*
X4059997Y-5108246D02*
X4069521Y-5089198D01*
X4069521Y-5089198D02*
X4079044Y-5079674D01*
X4079044Y-5079674D02*
X4098092Y-5070150D01*
X4098092Y-5070150D02*
X4117140Y-5070150D01*
X4183806Y-5203484D02*
X4183806Y-5070150D01*
X4183806Y-5003484D02*
X4174282Y-5013008D01*
X4174282Y-5013008D02*
X4183806Y-5022531D01*
X4183806Y-5022531D02*
X4193330Y-5013008D01*
X4193330Y-5013008D02*
X4183806Y-5003484D01*
X4183806Y-5003484D02*
X4183806Y-5022531D01*
X4307616Y-5203484D02*
X4288568Y-5193960D01*
X4288568Y-5193960D02*
X4279044Y-5174912D01*
X4279044Y-5174912D02*
X4279044Y-5003484D01*
X4412378Y-5203484D02*
X4393330Y-5193960D01*
X4393330Y-5193960D02*
X4383806Y-5174912D01*
X4383806Y-5174912D02*
X4383806Y-5003484D01*
X4640949Y-5203484D02*
X4640949Y-5003484D01*
X4640949Y-5003484D02*
X4707616Y-5146341D01*
X4707616Y-5146341D02*
X4774283Y-5003484D01*
X4774283Y-5003484D02*
X4774283Y-5203484D01*
X4955235Y-5203484D02*
X4955235Y-5098722D01*
X4955235Y-5098722D02*
X4945711Y-5079674D01*
X4945711Y-5079674D02*
X4926664Y-5070150D01*
X4926664Y-5070150D02*
X4888568Y-5070150D01*
X4888568Y-5070150D02*
X4869521Y-5079674D01*
X4955235Y-5193960D02*
X4936187Y-5203484D01*
X4936187Y-5203484D02*
X4888568Y-5203484D01*
X4888568Y-5203484D02*
X4869521Y-5193960D01*
X4869521Y-5193960D02*
X4859997Y-5174912D01*
X4859997Y-5174912D02*
X4859997Y-5155865D01*
X4859997Y-5155865D02*
X4869521Y-5136817D01*
X4869521Y-5136817D02*
X4888568Y-5127293D01*
X4888568Y-5127293D02*
X4936187Y-5127293D01*
X4936187Y-5127293D02*
X4955235Y-5117770D01*
X5050473Y-5070150D02*
X5050473Y-5270150D01*
X5050473Y-5079674D02*
X5069521Y-5070150D01*
X5069521Y-5070150D02*
X5107616Y-5070150D01*
X5107616Y-5070150D02*
X5126664Y-5079674D01*
X5126664Y-5079674D02*
X5136187Y-5089198D01*
X5136187Y-5089198D02*
X5145711Y-5108246D01*
X5145711Y-5108246D02*
X5145711Y-5165389D01*
X5145711Y-5165389D02*
X5136187Y-5184436D01*
X5136187Y-5184436D02*
X5126664Y-5193960D01*
X5126664Y-5193960D02*
X5107616Y-5203484D01*
X5107616Y-5203484D02*
X5069521Y-5203484D01*
X5069521Y-5203484D02*
X5050473Y-5193960D01*
X5231425Y-5184436D02*
X5240949Y-5193960D01*
X5240949Y-5193960D02*
X5231425Y-5203484D01*
X5231425Y-5203484D02*
X5221902Y-5193960D01*
X5221902Y-5193960D02*
X5231425Y-5184436D01*
X5231425Y-5184436D02*
X5231425Y-5203484D01*
X5231425Y-5079674D02*
X5240949Y-5089198D01*
X5240949Y-5089198D02*
X5231425Y-5098722D01*
X5231425Y-5098722D02*
X5221902Y-5089198D01*
X5221902Y-5089198D02*
X5231425Y-5079674D01*
X5231425Y-5079674D02*
X5231425Y-5098722D01*
D12*
X3569220Y-5517000D02*
X3599220Y-5547000D01*
X3599220Y-5517000D02*
X3569220Y-5547000D01*
D11*
X3898092Y-5423484D02*
X3917140Y-5423484D01*
X3917140Y-5423484D02*
X3936187Y-5433008D01*
X3936187Y-5433008D02*
X3945711Y-5442531D01*
X3945711Y-5442531D02*
X3955235Y-5461579D01*
X3955235Y-5461579D02*
X3964759Y-5499674D01*
X3964759Y-5499674D02*
X3964759Y-5547293D01*
X3964759Y-5547293D02*
X3955235Y-5585389D01*
X3955235Y-5585389D02*
X3945711Y-5604436D01*
X3945711Y-5604436D02*
X3936187Y-5613960D01*
X3936187Y-5613960D02*
X3917140Y-5623484D01*
X3917140Y-5623484D02*
X3898092Y-5623484D01*
X3898092Y-5623484D02*
X3879044Y-5613960D01*
X3879044Y-5613960D02*
X3869521Y-5604436D01*
X3869521Y-5604436D02*
X3859997Y-5585389D01*
X3859997Y-5585389D02*
X3850473Y-5547293D01*
X3850473Y-5547293D02*
X3850473Y-5499674D01*
X3850473Y-5499674D02*
X3859997Y-5461579D01*
X3859997Y-5461579D02*
X3869521Y-5442531D01*
X3869521Y-5442531D02*
X3879044Y-5433008D01*
X3879044Y-5433008D02*
X3898092Y-5423484D01*
X4050473Y-5604436D02*
X4059997Y-5613960D01*
X4059997Y-5613960D02*
X4050473Y-5623484D01*
X4050473Y-5623484D02*
X4040949Y-5613960D01*
X4040949Y-5613960D02*
X4050473Y-5604436D01*
X4050473Y-5604436D02*
X4050473Y-5623484D01*
X4126663Y-5423484D02*
X4250473Y-5423484D01*
X4250473Y-5423484D02*
X4183806Y-5499674D01*
X4183806Y-5499674D02*
X4212378Y-5499674D01*
X4212378Y-5499674D02*
X4231425Y-5509198D01*
X4231425Y-5509198D02*
X4240949Y-5518722D01*
X4240949Y-5518722D02*
X4250473Y-5537770D01*
X4250473Y-5537770D02*
X4250473Y-5585389D01*
X4250473Y-5585389D02*
X4240949Y-5604436D01*
X4240949Y-5604436D02*
X4231425Y-5613960D01*
X4231425Y-5613960D02*
X4212378Y-5623484D01*
X4212378Y-5623484D02*
X4155235Y-5623484D01*
X4155235Y-5623484D02*
X4136187Y-5613960D01*
X4136187Y-5613960D02*
X4126663Y-5604436D01*
X4374283Y-5423484D02*
X4393330Y-5423484D01*
X4393330Y-5423484D02*
X4412378Y-5433008D01*
X4412378Y-5433008D02*
X4421902Y-5442531D01*
X4421902Y-5442531D02*
X4431425Y-5461579D01*
X4431425Y-5461579D02*
X4440949Y-5499674D01*
X4440949Y-5499674D02*
X4440949Y-5547293D01*
X4440949Y-5547293D02*
X4431425Y-5585389D01*
X4431425Y-5585389D02*
X4421902Y-5604436D01*
X4421902Y-5604436D02*
X4412378Y-5613960D01*
X4412378Y-5613960D02*
X4393330Y-5623484D01*
X4393330Y-5623484D02*
X4374283Y-5623484D01*
X4374283Y-5623484D02*
X4355235Y-5613960D01*
X4355235Y-5613960D02*
X4345711Y-5604436D01*
X4345711Y-5604436D02*
X4336187Y-5585389D01*
X4336187Y-5585389D02*
X4326664Y-5547293D01*
X4326664Y-5547293D02*
X4326664Y-5499674D01*
X4326664Y-5499674D02*
X4336187Y-5461579D01*
X4336187Y-5461579D02*
X4345711Y-5442531D01*
X4345711Y-5442531D02*
X4355235Y-5433008D01*
X4355235Y-5433008D02*
X4374283Y-5423484D01*
X4564759Y-5423484D02*
X4583806Y-5423484D01*
X4583806Y-5423484D02*
X4602854Y-5433008D01*
X4602854Y-5433008D02*
X4612378Y-5442531D01*
X4612378Y-5442531D02*
X4621902Y-5461579D01*
X4621902Y-5461579D02*
X4631425Y-5499674D01*
X4631425Y-5499674D02*
X4631425Y-5547293D01*
X4631425Y-5547293D02*
X4621902Y-5585389D01*
X4621902Y-5585389D02*
X4612378Y-5604436D01*
X4612378Y-5604436D02*
X4602854Y-5613960D01*
X4602854Y-5613960D02*
X4583806Y-5623484D01*
X4583806Y-5623484D02*
X4564759Y-5623484D01*
X4564759Y-5623484D02*
X4545711Y-5613960D01*
X4545711Y-5613960D02*
X4536187Y-5604436D01*
X4536187Y-5604436D02*
X4526664Y-5585389D01*
X4526664Y-5585389D02*
X4517140Y-5547293D01*
X4517140Y-5547293D02*
X4517140Y-5499674D01*
X4517140Y-5499674D02*
X4526664Y-5461579D01*
X4526664Y-5461579D02*
X4536187Y-5442531D01*
X4536187Y-5442531D02*
X4545711Y-5433008D01*
X4545711Y-5433008D02*
X4564759Y-5423484D01*
X4717140Y-5623484D02*
X4717140Y-5490150D01*
X4717140Y-5509198D02*
X4726664Y-5499674D01*
X4726664Y-5499674D02*
X4745711Y-5490150D01*
X4745711Y-5490150D02*
X4774283Y-5490150D01*
X4774283Y-5490150D02*
X4793330Y-5499674D01*
X4793330Y-5499674D02*
X4802854Y-5518722D01*
X4802854Y-5518722D02*
X4802854Y-5623484D01*
X4802854Y-5518722D02*
X4812378Y-5499674D01*
X4812378Y-5499674D02*
X4831425Y-5490150D01*
X4831425Y-5490150D02*
X4859997Y-5490150D01*
X4859997Y-5490150D02*
X4879045Y-5499674D01*
X4879045Y-5499674D02*
X4888568Y-5518722D01*
X4888568Y-5518722D02*
X4888568Y-5623484D01*
X4983806Y-5623484D02*
X4983806Y-5490150D01*
X4983806Y-5509198D02*
X4993330Y-5499674D01*
X4993330Y-5499674D02*
X5012378Y-5490150D01*
X5012378Y-5490150D02*
X5040949Y-5490150D01*
X5040949Y-5490150D02*
X5059997Y-5499674D01*
X5059997Y-5499674D02*
X5069521Y-5518722D01*
X5069521Y-5518722D02*
X5069521Y-5623484D01*
X5069521Y-5518722D02*
X5079045Y-5499674D01*
X5079045Y-5499674D02*
X5098092Y-5490150D01*
X5098092Y-5490150D02*
X5126664Y-5490150D01*
X5126664Y-5490150D02*
X5145711Y-5499674D01*
X5145711Y-5499674D02*
X5155235Y-5518722D01*
X5155235Y-5518722D02*
X5155235Y-5623484D01*
X5545711Y-5413960D02*
X5374283Y-5671103D01*
X5802854Y-5423484D02*
X5821902Y-5423484D01*
X5821902Y-5423484D02*
X5840949Y-5433008D01*
X5840949Y-5433008D02*
X5850473Y-5442531D01*
X5850473Y-5442531D02*
X5859997Y-5461579D01*
X5859997Y-5461579D02*
X5869521Y-5499674D01*
X5869521Y-5499674D02*
X5869521Y-5547293D01*
X5869521Y-5547293D02*
X5859997Y-5585389D01*
X5859997Y-5585389D02*
X5850473Y-5604436D01*
X5850473Y-5604436D02*
X5840949Y-5613960D01*
X5840949Y-5613960D02*
X5821902Y-5623484D01*
X5821902Y-5623484D02*
X5802854Y-5623484D01*
X5802854Y-5623484D02*
X5783806Y-5613960D01*
X5783806Y-5613960D02*
X5774283Y-5604436D01*
X5774283Y-5604436D02*
X5764759Y-5585389D01*
X5764759Y-5585389D02*
X5755235Y-5547293D01*
X5755235Y-5547293D02*
X5755235Y-5499674D01*
X5755235Y-5499674D02*
X5764759Y-5461579D01*
X5764759Y-5461579D02*
X5774283Y-5442531D01*
X5774283Y-5442531D02*
X5783806Y-5433008D01*
X5783806Y-5433008D02*
X5802854Y-5423484D01*
X5955235Y-5604436D02*
X5964759Y-5613960D01*
X5964759Y-5613960D02*
X5955235Y-5623484D01*
X5955235Y-5623484D02*
X5945711Y-5613960D01*
X5945711Y-5613960D02*
X5955235Y-5604436D01*
X5955235Y-5604436D02*
X5955235Y-5623484D01*
X6088568Y-5423484D02*
X6107616Y-5423484D01*
X6107616Y-5423484D02*
X6126664Y-5433008D01*
X6126664Y-5433008D02*
X6136187Y-5442531D01*
X6136187Y-5442531D02*
X6145711Y-5461579D01*
X6145711Y-5461579D02*
X6155235Y-5499674D01*
X6155235Y-5499674D02*
X6155235Y-5547293D01*
X6155235Y-5547293D02*
X6145711Y-5585389D01*
X6145711Y-5585389D02*
X6136187Y-5604436D01*
X6136187Y-5604436D02*
X6126664Y-5613960D01*
X6126664Y-5613960D02*
X6107616Y-5623484D01*
X6107616Y-5623484D02*
X6088568Y-5623484D01*
X6088568Y-5623484D02*
X6069521Y-5613960D01*
X6069521Y-5613960D02*
X6059997Y-5604436D01*
X6059997Y-5604436D02*
X6050473Y-5585389D01*
X6050473Y-5585389D02*
X6040949Y-5547293D01*
X6040949Y-5547293D02*
X6040949Y-5499674D01*
X6040949Y-5499674D02*
X6050473Y-5461579D01*
X6050473Y-5461579D02*
X6059997Y-5442531D01*
X6059997Y-5442531D02*
X6069521Y-5433008D01*
X6069521Y-5433008D02*
X6088568Y-5423484D01*
X6345711Y-5623484D02*
X6231426Y-5623484D01*
X6288568Y-5623484D02*
X6288568Y-5423484D01*
X6288568Y-5423484D02*
X6269521Y-5452055D01*
X6269521Y-5452055D02*
X6250473Y-5471103D01*
X6250473Y-5471103D02*
X6231426Y-5480627D01*
X6536187Y-5623484D02*
X6421902Y-5623484D01*
X6479045Y-5623484D02*
X6479045Y-5423484D01*
X6479045Y-5423484D02*
X6459997Y-5452055D01*
X6459997Y-5452055D02*
X6440949Y-5471103D01*
X6440949Y-5471103D02*
X6421902Y-5480627D01*
X6650473Y-5509198D02*
X6631426Y-5499674D01*
X6631426Y-5499674D02*
X6621902Y-5490150D01*
X6621902Y-5490150D02*
X6612378Y-5471103D01*
X6612378Y-5471103D02*
X6612378Y-5461579D01*
X6612378Y-5461579D02*
X6621902Y-5442531D01*
X6621902Y-5442531D02*
X6631426Y-5433008D01*
X6631426Y-5433008D02*
X6650473Y-5423484D01*
X6650473Y-5423484D02*
X6688568Y-5423484D01*
X6688568Y-5423484D02*
X6707616Y-5433008D01*
X6707616Y-5433008D02*
X6717140Y-5442531D01*
X6717140Y-5442531D02*
X6726664Y-5461579D01*
X6726664Y-5461579D02*
X6726664Y-5471103D01*
X6726664Y-5471103D02*
X6717140Y-5490150D01*
X6717140Y-5490150D02*
X6707616Y-5499674D01*
X6707616Y-5499674D02*
X6688568Y-5509198D01*
X6688568Y-5509198D02*
X6650473Y-5509198D01*
X6650473Y-5509198D02*
X6631426Y-5518722D01*
X6631426Y-5518722D02*
X6621902Y-5528246D01*
X6621902Y-5528246D02*
X6612378Y-5547293D01*
X6612378Y-5547293D02*
X6612378Y-5585389D01*
X6612378Y-5585389D02*
X6621902Y-5604436D01*
X6621902Y-5604436D02*
X6631426Y-5613960D01*
X6631426Y-5613960D02*
X6650473Y-5623484D01*
X6650473Y-5623484D02*
X6688568Y-5623484D01*
X6688568Y-5623484D02*
X6707616Y-5613960D01*
X6707616Y-5613960D02*
X6717140Y-5604436D01*
X6717140Y-5604436D02*
X6726664Y-5585389D01*
X6726664Y-5585389D02*
X6726664Y-5547293D01*
X6726664Y-5547293D02*
X6717140Y-5528246D01*
X6717140Y-5528246D02*
X6707616Y-5518722D01*
X6707616Y-5518722D02*
X6688568Y-5509198D01*
X6802854Y-5423484D02*
X6802854Y-5461579D01*
X6879045Y-5423484D02*
X6879045Y-5461579D01*
X7174283Y-5699674D02*
X7164759Y-5690150D01*
X7164759Y-5690150D02*
X7145711Y-5661579D01*
X7145711Y-5661579D02*
X7136188Y-5642531D01*
X7136188Y-5642531D02*
X7126664Y-5613960D01*
X7126664Y-5613960D02*
X7117140Y-5566341D01*
X7117140Y-5566341D02*
X7117140Y-5528246D01*
X7117140Y-5528246D02*
X7126664Y-5480627D01*
X7126664Y-5480627D02*
X7136188Y-5452055D01*
X7136188Y-5452055D02*
X7145711Y-5433008D01*
X7145711Y-5433008D02*
X7164759Y-5404436D01*
X7164759Y-5404436D02*
X7174283Y-5394912D01*
X7279045Y-5509198D02*
X7259997Y-5499674D01*
X7259997Y-5499674D02*
X7250473Y-5490150D01*
X7250473Y-5490150D02*
X7240949Y-5471103D01*
X7240949Y-5471103D02*
X7240949Y-5461579D01*
X7240949Y-5461579D02*
X7250473Y-5442531D01*
X7250473Y-5442531D02*
X7259997Y-5433008D01*
X7259997Y-5433008D02*
X7279045Y-5423484D01*
X7279045Y-5423484D02*
X7317140Y-5423484D01*
X7317140Y-5423484D02*
X7336188Y-5433008D01*
X7336188Y-5433008D02*
X7345711Y-5442531D01*
X7345711Y-5442531D02*
X7355235Y-5461579D01*
X7355235Y-5461579D02*
X7355235Y-5471103D01*
X7355235Y-5471103D02*
X7345711Y-5490150D01*
X7345711Y-5490150D02*
X7336188Y-5499674D01*
X7336188Y-5499674D02*
X7317140Y-5509198D01*
X7317140Y-5509198D02*
X7279045Y-5509198D01*
X7279045Y-5509198D02*
X7259997Y-5518722D01*
X7259997Y-5518722D02*
X7250473Y-5528246D01*
X7250473Y-5528246D02*
X7240949Y-5547293D01*
X7240949Y-5547293D02*
X7240949Y-5585389D01*
X7240949Y-5585389D02*
X7250473Y-5604436D01*
X7250473Y-5604436D02*
X7259997Y-5613960D01*
X7259997Y-5613960D02*
X7279045Y-5623484D01*
X7279045Y-5623484D02*
X7317140Y-5623484D01*
X7317140Y-5623484D02*
X7336188Y-5613960D01*
X7336188Y-5613960D02*
X7345711Y-5604436D01*
X7345711Y-5604436D02*
X7355235Y-5585389D01*
X7355235Y-5585389D02*
X7355235Y-5547293D01*
X7355235Y-5547293D02*
X7345711Y-5528246D01*
X7345711Y-5528246D02*
X7336188Y-5518722D01*
X7336188Y-5518722D02*
X7317140Y-5509198D01*
X7593330Y-5623484D02*
X7593330Y-5423484D01*
X7679045Y-5623484D02*
X7679045Y-5518722D01*
X7679045Y-5518722D02*
X7669521Y-5499674D01*
X7669521Y-5499674D02*
X7650473Y-5490150D01*
X7650473Y-5490150D02*
X7621902Y-5490150D01*
X7621902Y-5490150D02*
X7602854Y-5499674D01*
X7602854Y-5499674D02*
X7593330Y-5509198D01*
X7802854Y-5623484D02*
X7783807Y-5613960D01*
X7783807Y-5613960D02*
X7774283Y-5604436D01*
X7774283Y-5604436D02*
X7764759Y-5585389D01*
X7764759Y-5585389D02*
X7764759Y-5528246D01*
X7764759Y-5528246D02*
X7774283Y-5509198D01*
X7774283Y-5509198D02*
X7783807Y-5499674D01*
X7783807Y-5499674D02*
X7802854Y-5490150D01*
X7802854Y-5490150D02*
X7831426Y-5490150D01*
X7831426Y-5490150D02*
X7850473Y-5499674D01*
X7850473Y-5499674D02*
X7859997Y-5509198D01*
X7859997Y-5509198D02*
X7869521Y-5528246D01*
X7869521Y-5528246D02*
X7869521Y-5585389D01*
X7869521Y-5585389D02*
X7859997Y-5604436D01*
X7859997Y-5604436D02*
X7850473Y-5613960D01*
X7850473Y-5613960D02*
X7831426Y-5623484D01*
X7831426Y-5623484D02*
X7802854Y-5623484D01*
X7983807Y-5623484D02*
X7964759Y-5613960D01*
X7964759Y-5613960D02*
X7955235Y-5594912D01*
X7955235Y-5594912D02*
X7955235Y-5423484D01*
X8136188Y-5613960D02*
X8117140Y-5623484D01*
X8117140Y-5623484D02*
X8079045Y-5623484D01*
X8079045Y-5623484D02*
X8059997Y-5613960D01*
X8059997Y-5613960D02*
X8050473Y-5594912D01*
X8050473Y-5594912D02*
X8050473Y-5518722D01*
X8050473Y-5518722D02*
X8059997Y-5499674D01*
X8059997Y-5499674D02*
X8079045Y-5490150D01*
X8079045Y-5490150D02*
X8117140Y-5490150D01*
X8117140Y-5490150D02*
X8136188Y-5499674D01*
X8136188Y-5499674D02*
X8145711Y-5518722D01*
X8145711Y-5518722D02*
X8145711Y-5537770D01*
X8145711Y-5537770D02*
X8050473Y-5556817D01*
X8221902Y-5613960D02*
X8240950Y-5623484D01*
X8240950Y-5623484D02*
X8279045Y-5623484D01*
X8279045Y-5623484D02*
X8298092Y-5613960D01*
X8298092Y-5613960D02*
X8307616Y-5594912D01*
X8307616Y-5594912D02*
X8307616Y-5585389D01*
X8307616Y-5585389D02*
X8298092Y-5566341D01*
X8298092Y-5566341D02*
X8279045Y-5556817D01*
X8279045Y-5556817D02*
X8250473Y-5556817D01*
X8250473Y-5556817D02*
X8231426Y-5547293D01*
X8231426Y-5547293D02*
X8221902Y-5528246D01*
X8221902Y-5528246D02*
X8221902Y-5518722D01*
X8221902Y-5518722D02*
X8231426Y-5499674D01*
X8231426Y-5499674D02*
X8250473Y-5490150D01*
X8250473Y-5490150D02*
X8279045Y-5490150D01*
X8279045Y-5490150D02*
X8298092Y-5499674D01*
X8374283Y-5699674D02*
X8383807Y-5690150D01*
X8383807Y-5690150D02*
X8402854Y-5661579D01*
X8402854Y-5661579D02*
X8412378Y-5642531D01*
X8412378Y-5642531D02*
X8421902Y-5613960D01*
X8421902Y-5613960D02*
X8431426Y-5566341D01*
X8431426Y-5566341D02*
X8431426Y-5528246D01*
X8431426Y-5528246D02*
X8421902Y-5480627D01*
X8421902Y-5480627D02*
X8412378Y-5452055D01*
X8412378Y-5452055D02*
X8402854Y-5433008D01*
X8402854Y-5433008D02*
X8383807Y-5404436D01*
X8383807Y-5404436D02*
X8374283Y-5394912D01*
D12*
X3599220Y-5796000D02*
G75*
G02*
X3539220Y-5796000I-30000J0D01*
G01*
X3539220Y-5796000D02*
G75*
G02*
X3599220Y-5796000I30000J0D01*
G01*
D11*
X3898092Y-5687484D02*
X3917140Y-5687484D01*
X3917140Y-5687484D02*
X3936187Y-5697008D01*
X3936187Y-5697008D02*
X3945711Y-5706531D01*
X3945711Y-5706531D02*
X3955235Y-5725579D01*
X3955235Y-5725579D02*
X3964759Y-5763674D01*
X3964759Y-5763674D02*
X3964759Y-5811293D01*
X3964759Y-5811293D02*
X3955235Y-5849388D01*
X3955235Y-5849388D02*
X3945711Y-5868436D01*
X3945711Y-5868436D02*
X3936187Y-5877960D01*
X3936187Y-5877960D02*
X3917140Y-5887484D01*
X3917140Y-5887484D02*
X3898092Y-5887484D01*
X3898092Y-5887484D02*
X3879044Y-5877960D01*
X3879044Y-5877960D02*
X3869521Y-5868436D01*
X3869521Y-5868436D02*
X3859997Y-5849388D01*
X3859997Y-5849388D02*
X3850473Y-5811293D01*
X3850473Y-5811293D02*
X3850473Y-5763674D01*
X3850473Y-5763674D02*
X3859997Y-5725579D01*
X3859997Y-5725579D02*
X3869521Y-5706531D01*
X3869521Y-5706531D02*
X3879044Y-5697008D01*
X3879044Y-5697008D02*
X3898092Y-5687484D01*
X4050473Y-5868436D02*
X4059997Y-5877960D01*
X4059997Y-5877960D02*
X4050473Y-5887484D01*
X4050473Y-5887484D02*
X4040949Y-5877960D01*
X4040949Y-5877960D02*
X4050473Y-5868436D01*
X4050473Y-5868436D02*
X4050473Y-5887484D01*
X4231425Y-5687484D02*
X4193330Y-5687484D01*
X4193330Y-5687484D02*
X4174282Y-5697008D01*
X4174282Y-5697008D02*
X4164759Y-5706531D01*
X4164759Y-5706531D02*
X4145711Y-5735103D01*
X4145711Y-5735103D02*
X4136187Y-5773198D01*
X4136187Y-5773198D02*
X4136187Y-5849388D01*
X4136187Y-5849388D02*
X4145711Y-5868436D01*
X4145711Y-5868436D02*
X4155235Y-5877960D01*
X4155235Y-5877960D02*
X4174282Y-5887484D01*
X4174282Y-5887484D02*
X4212378Y-5887484D01*
X4212378Y-5887484D02*
X4231425Y-5877960D01*
X4231425Y-5877960D02*
X4240949Y-5868436D01*
X4240949Y-5868436D02*
X4250473Y-5849388D01*
X4250473Y-5849388D02*
X4250473Y-5801769D01*
X4250473Y-5801769D02*
X4240949Y-5782722D01*
X4240949Y-5782722D02*
X4231425Y-5773198D01*
X4231425Y-5773198D02*
X4212378Y-5763674D01*
X4212378Y-5763674D02*
X4174282Y-5763674D01*
X4174282Y-5763674D02*
X4155235Y-5773198D01*
X4155235Y-5773198D02*
X4145711Y-5782722D01*
X4145711Y-5782722D02*
X4136187Y-5801769D01*
X4374283Y-5687484D02*
X4393330Y-5687484D01*
X4393330Y-5687484D02*
X4412378Y-5697008D01*
X4412378Y-5697008D02*
X4421902Y-5706531D01*
X4421902Y-5706531D02*
X4431425Y-5725579D01*
X4431425Y-5725579D02*
X4440949Y-5763674D01*
X4440949Y-5763674D02*
X4440949Y-5811293D01*
X4440949Y-5811293D02*
X4431425Y-5849388D01*
X4431425Y-5849388D02*
X4421902Y-5868436D01*
X4421902Y-5868436D02*
X4412378Y-5877960D01*
X4412378Y-5877960D02*
X4393330Y-5887484D01*
X4393330Y-5887484D02*
X4374283Y-5887484D01*
X4374283Y-5887484D02*
X4355235Y-5877960D01*
X4355235Y-5877960D02*
X4345711Y-5868436D01*
X4345711Y-5868436D02*
X4336187Y-5849388D01*
X4336187Y-5849388D02*
X4326664Y-5811293D01*
X4326664Y-5811293D02*
X4326664Y-5763674D01*
X4326664Y-5763674D02*
X4336187Y-5725579D01*
X4336187Y-5725579D02*
X4345711Y-5706531D01*
X4345711Y-5706531D02*
X4355235Y-5697008D01*
X4355235Y-5697008D02*
X4374283Y-5687484D01*
X4564759Y-5687484D02*
X4583806Y-5687484D01*
X4583806Y-5687484D02*
X4602854Y-5697008D01*
X4602854Y-5697008D02*
X4612378Y-5706531D01*
X4612378Y-5706531D02*
X4621902Y-5725579D01*
X4621902Y-5725579D02*
X4631425Y-5763674D01*
X4631425Y-5763674D02*
X4631425Y-5811293D01*
X4631425Y-5811293D02*
X4621902Y-5849388D01*
X4621902Y-5849388D02*
X4612378Y-5868436D01*
X4612378Y-5868436D02*
X4602854Y-5877960D01*
X4602854Y-5877960D02*
X4583806Y-5887484D01*
X4583806Y-5887484D02*
X4564759Y-5887484D01*
X4564759Y-5887484D02*
X4545711Y-5877960D01*
X4545711Y-5877960D02*
X4536187Y-5868436D01*
X4536187Y-5868436D02*
X4526664Y-5849388D01*
X4526664Y-5849388D02*
X4517140Y-5811293D01*
X4517140Y-5811293D02*
X4517140Y-5763674D01*
X4517140Y-5763674D02*
X4526664Y-5725579D01*
X4526664Y-5725579D02*
X4536187Y-5706531D01*
X4536187Y-5706531D02*
X4545711Y-5697008D01*
X4545711Y-5697008D02*
X4564759Y-5687484D01*
X4717140Y-5887484D02*
X4717140Y-5754150D01*
X4717140Y-5773198D02*
X4726664Y-5763674D01*
X4726664Y-5763674D02*
X4745711Y-5754150D01*
X4745711Y-5754150D02*
X4774283Y-5754150D01*
X4774283Y-5754150D02*
X4793330Y-5763674D01*
X4793330Y-5763674D02*
X4802854Y-5782722D01*
X4802854Y-5782722D02*
X4802854Y-5887484D01*
X4802854Y-5782722D02*
X4812378Y-5763674D01*
X4812378Y-5763674D02*
X4831425Y-5754150D01*
X4831425Y-5754150D02*
X4859997Y-5754150D01*
X4859997Y-5754150D02*
X4879045Y-5763674D01*
X4879045Y-5763674D02*
X4888568Y-5782722D01*
X4888568Y-5782722D02*
X4888568Y-5887484D01*
X4983806Y-5887484D02*
X4983806Y-5754150D01*
X4983806Y-5773198D02*
X4993330Y-5763674D01*
X4993330Y-5763674D02*
X5012378Y-5754150D01*
X5012378Y-5754150D02*
X5040949Y-5754150D01*
X5040949Y-5754150D02*
X5059997Y-5763674D01*
X5059997Y-5763674D02*
X5069521Y-5782722D01*
X5069521Y-5782722D02*
X5069521Y-5887484D01*
X5069521Y-5782722D02*
X5079045Y-5763674D01*
X5079045Y-5763674D02*
X5098092Y-5754150D01*
X5098092Y-5754150D02*
X5126664Y-5754150D01*
X5126664Y-5754150D02*
X5145711Y-5763674D01*
X5145711Y-5763674D02*
X5155235Y-5782722D01*
X5155235Y-5782722D02*
X5155235Y-5887484D01*
X5545711Y-5677960D02*
X5374283Y-5935103D01*
X5802854Y-5687484D02*
X5821902Y-5687484D01*
X5821902Y-5687484D02*
X5840949Y-5697008D01*
X5840949Y-5697008D02*
X5850473Y-5706531D01*
X5850473Y-5706531D02*
X5859997Y-5725579D01*
X5859997Y-5725579D02*
X5869521Y-5763674D01*
X5869521Y-5763674D02*
X5869521Y-5811293D01*
X5869521Y-5811293D02*
X5859997Y-5849388D01*
X5859997Y-5849388D02*
X5850473Y-5868436D01*
X5850473Y-5868436D02*
X5840949Y-5877960D01*
X5840949Y-5877960D02*
X5821902Y-5887484D01*
X5821902Y-5887484D02*
X5802854Y-5887484D01*
X5802854Y-5887484D02*
X5783806Y-5877960D01*
X5783806Y-5877960D02*
X5774283Y-5868436D01*
X5774283Y-5868436D02*
X5764759Y-5849388D01*
X5764759Y-5849388D02*
X5755235Y-5811293D01*
X5755235Y-5811293D02*
X5755235Y-5763674D01*
X5755235Y-5763674D02*
X5764759Y-5725579D01*
X5764759Y-5725579D02*
X5774283Y-5706531D01*
X5774283Y-5706531D02*
X5783806Y-5697008D01*
X5783806Y-5697008D02*
X5802854Y-5687484D01*
X5955235Y-5868436D02*
X5964759Y-5877960D01*
X5964759Y-5877960D02*
X5955235Y-5887484D01*
X5955235Y-5887484D02*
X5945711Y-5877960D01*
X5945711Y-5877960D02*
X5955235Y-5868436D01*
X5955235Y-5868436D02*
X5955235Y-5887484D01*
X6088568Y-5687484D02*
X6107616Y-5687484D01*
X6107616Y-5687484D02*
X6126664Y-5697008D01*
X6126664Y-5697008D02*
X6136187Y-5706531D01*
X6136187Y-5706531D02*
X6145711Y-5725579D01*
X6145711Y-5725579D02*
X6155235Y-5763674D01*
X6155235Y-5763674D02*
X6155235Y-5811293D01*
X6155235Y-5811293D02*
X6145711Y-5849388D01*
X6145711Y-5849388D02*
X6136187Y-5868436D01*
X6136187Y-5868436D02*
X6126664Y-5877960D01*
X6126664Y-5877960D02*
X6107616Y-5887484D01*
X6107616Y-5887484D02*
X6088568Y-5887484D01*
X6088568Y-5887484D02*
X6069521Y-5877960D01*
X6069521Y-5877960D02*
X6059997Y-5868436D01*
X6059997Y-5868436D02*
X6050473Y-5849388D01*
X6050473Y-5849388D02*
X6040949Y-5811293D01*
X6040949Y-5811293D02*
X6040949Y-5763674D01*
X6040949Y-5763674D02*
X6050473Y-5725579D01*
X6050473Y-5725579D02*
X6059997Y-5706531D01*
X6059997Y-5706531D02*
X6069521Y-5697008D01*
X6069521Y-5697008D02*
X6088568Y-5687484D01*
X6231426Y-5706531D02*
X6240949Y-5697008D01*
X6240949Y-5697008D02*
X6259997Y-5687484D01*
X6259997Y-5687484D02*
X6307616Y-5687484D01*
X6307616Y-5687484D02*
X6326664Y-5697008D01*
X6326664Y-5697008D02*
X6336187Y-5706531D01*
X6336187Y-5706531D02*
X6345711Y-5725579D01*
X6345711Y-5725579D02*
X6345711Y-5744627D01*
X6345711Y-5744627D02*
X6336187Y-5773198D01*
X6336187Y-5773198D02*
X6221902Y-5887484D01*
X6221902Y-5887484D02*
X6345711Y-5887484D01*
X6412378Y-5687484D02*
X6536187Y-5687484D01*
X6536187Y-5687484D02*
X6469521Y-5763674D01*
X6469521Y-5763674D02*
X6498092Y-5763674D01*
X6498092Y-5763674D02*
X6517140Y-5773198D01*
X6517140Y-5773198D02*
X6526664Y-5782722D01*
X6526664Y-5782722D02*
X6536187Y-5801769D01*
X6536187Y-5801769D02*
X6536187Y-5849388D01*
X6536187Y-5849388D02*
X6526664Y-5868436D01*
X6526664Y-5868436D02*
X6517140Y-5877960D01*
X6517140Y-5877960D02*
X6498092Y-5887484D01*
X6498092Y-5887484D02*
X6440949Y-5887484D01*
X6440949Y-5887484D02*
X6421902Y-5877960D01*
X6421902Y-5877960D02*
X6412378Y-5868436D01*
X6707616Y-5687484D02*
X6669521Y-5687484D01*
X6669521Y-5687484D02*
X6650473Y-5697008D01*
X6650473Y-5697008D02*
X6640949Y-5706531D01*
X6640949Y-5706531D02*
X6621902Y-5735103D01*
X6621902Y-5735103D02*
X6612378Y-5773198D01*
X6612378Y-5773198D02*
X6612378Y-5849388D01*
X6612378Y-5849388D02*
X6621902Y-5868436D01*
X6621902Y-5868436D02*
X6631426Y-5877960D01*
X6631426Y-5877960D02*
X6650473Y-5887484D01*
X6650473Y-5887484D02*
X6688568Y-5887484D01*
X6688568Y-5887484D02*
X6707616Y-5877960D01*
X6707616Y-5877960D02*
X6717140Y-5868436D01*
X6717140Y-5868436D02*
X6726664Y-5849388D01*
X6726664Y-5849388D02*
X6726664Y-5801769D01*
X6726664Y-5801769D02*
X6717140Y-5782722D01*
X6717140Y-5782722D02*
X6707616Y-5773198D01*
X6707616Y-5773198D02*
X6688568Y-5763674D01*
X6688568Y-5763674D02*
X6650473Y-5763674D01*
X6650473Y-5763674D02*
X6631426Y-5773198D01*
X6631426Y-5773198D02*
X6621902Y-5782722D01*
X6621902Y-5782722D02*
X6612378Y-5801769D01*
X6802854Y-5687484D02*
X6802854Y-5725579D01*
X6879045Y-5687484D02*
X6879045Y-5725579D01*
X7174283Y-5963674D02*
X7164759Y-5954150D01*
X7164759Y-5954150D02*
X7145711Y-5925579D01*
X7145711Y-5925579D02*
X7136188Y-5906531D01*
X7136188Y-5906531D02*
X7126664Y-5877960D01*
X7126664Y-5877960D02*
X7117140Y-5830341D01*
X7117140Y-5830341D02*
X7117140Y-5792246D01*
X7117140Y-5792246D02*
X7126664Y-5744627D01*
X7126664Y-5744627D02*
X7136188Y-5716055D01*
X7136188Y-5716055D02*
X7145711Y-5697008D01*
X7145711Y-5697008D02*
X7164759Y-5668436D01*
X7164759Y-5668436D02*
X7174283Y-5658912D01*
X7288568Y-5687484D02*
X7307616Y-5687484D01*
X7307616Y-5687484D02*
X7326664Y-5697008D01*
X7326664Y-5697008D02*
X7336188Y-5706531D01*
X7336188Y-5706531D02*
X7345711Y-5725579D01*
X7345711Y-5725579D02*
X7355235Y-5763674D01*
X7355235Y-5763674D02*
X7355235Y-5811293D01*
X7355235Y-5811293D02*
X7345711Y-5849388D01*
X7345711Y-5849388D02*
X7336188Y-5868436D01*
X7336188Y-5868436D02*
X7326664Y-5877960D01*
X7326664Y-5877960D02*
X7307616Y-5887484D01*
X7307616Y-5887484D02*
X7288568Y-5887484D01*
X7288568Y-5887484D02*
X7269521Y-5877960D01*
X7269521Y-5877960D02*
X7259997Y-5868436D01*
X7259997Y-5868436D02*
X7250473Y-5849388D01*
X7250473Y-5849388D02*
X7240949Y-5811293D01*
X7240949Y-5811293D02*
X7240949Y-5763674D01*
X7240949Y-5763674D02*
X7250473Y-5725579D01*
X7250473Y-5725579D02*
X7259997Y-5706531D01*
X7259997Y-5706531D02*
X7269521Y-5697008D01*
X7269521Y-5697008D02*
X7288568Y-5687484D01*
X7593330Y-5887484D02*
X7593330Y-5687484D01*
X7679045Y-5887484D02*
X7679045Y-5782722D01*
X7679045Y-5782722D02*
X7669521Y-5763674D01*
X7669521Y-5763674D02*
X7650473Y-5754150D01*
X7650473Y-5754150D02*
X7621902Y-5754150D01*
X7621902Y-5754150D02*
X7602854Y-5763674D01*
X7602854Y-5763674D02*
X7593330Y-5773198D01*
X7802854Y-5887484D02*
X7783807Y-5877960D01*
X7783807Y-5877960D02*
X7774283Y-5868436D01*
X7774283Y-5868436D02*
X7764759Y-5849388D01*
X7764759Y-5849388D02*
X7764759Y-5792246D01*
X7764759Y-5792246D02*
X7774283Y-5773198D01*
X7774283Y-5773198D02*
X7783807Y-5763674D01*
X7783807Y-5763674D02*
X7802854Y-5754150D01*
X7802854Y-5754150D02*
X7831426Y-5754150D01*
X7831426Y-5754150D02*
X7850473Y-5763674D01*
X7850473Y-5763674D02*
X7859997Y-5773198D01*
X7859997Y-5773198D02*
X7869521Y-5792246D01*
X7869521Y-5792246D02*
X7869521Y-5849388D01*
X7869521Y-5849388D02*
X7859997Y-5868436D01*
X7859997Y-5868436D02*
X7850473Y-5877960D01*
X7850473Y-5877960D02*
X7831426Y-5887484D01*
X7831426Y-5887484D02*
X7802854Y-5887484D01*
X7983807Y-5887484D02*
X7964759Y-5877960D01*
X7964759Y-5877960D02*
X7955235Y-5858912D01*
X7955235Y-5858912D02*
X7955235Y-5687484D01*
X8136188Y-5877960D02*
X8117140Y-5887484D01*
X8117140Y-5887484D02*
X8079045Y-5887484D01*
X8079045Y-5887484D02*
X8059997Y-5877960D01*
X8059997Y-5877960D02*
X8050473Y-5858912D01*
X8050473Y-5858912D02*
X8050473Y-5782722D01*
X8050473Y-5782722D02*
X8059997Y-5763674D01*
X8059997Y-5763674D02*
X8079045Y-5754150D01*
X8079045Y-5754150D02*
X8117140Y-5754150D01*
X8117140Y-5754150D02*
X8136188Y-5763674D01*
X8136188Y-5763674D02*
X8145711Y-5782722D01*
X8145711Y-5782722D02*
X8145711Y-5801769D01*
X8145711Y-5801769D02*
X8050473Y-5820817D01*
X8221902Y-5877960D02*
X8240950Y-5887484D01*
X8240950Y-5887484D02*
X8279045Y-5887484D01*
X8279045Y-5887484D02*
X8298092Y-5877960D01*
X8298092Y-5877960D02*
X8307616Y-5858912D01*
X8307616Y-5858912D02*
X8307616Y-5849388D01*
X8307616Y-5849388D02*
X8298092Y-5830341D01*
X8298092Y-5830341D02*
X8279045Y-5820817D01*
X8279045Y-5820817D02*
X8250473Y-5820817D01*
X8250473Y-5820817D02*
X8231426Y-5811293D01*
X8231426Y-5811293D02*
X8221902Y-5792246D01*
X8221902Y-5792246D02*
X8221902Y-5782722D01*
X8221902Y-5782722D02*
X8231426Y-5763674D01*
X8231426Y-5763674D02*
X8250473Y-5754150D01*
X8250473Y-5754150D02*
X8279045Y-5754150D01*
X8279045Y-5754150D02*
X8298092Y-5763674D01*
X8545712Y-5811293D02*
X8698093Y-5811293D01*
X8621902Y-5887484D02*
X8621902Y-5735103D01*
X8936188Y-5706531D02*
X8945712Y-5697008D01*
X8945712Y-5697008D02*
X8964759Y-5687484D01*
X8964759Y-5687484D02*
X9012378Y-5687484D01*
X9012378Y-5687484D02*
X9031426Y-5697008D01*
X9031426Y-5697008D02*
X9040950Y-5706531D01*
X9040950Y-5706531D02*
X9050474Y-5725579D01*
X9050474Y-5725579D02*
X9050474Y-5744627D01*
X9050474Y-5744627D02*
X9040950Y-5773198D01*
X9040950Y-5773198D02*
X8926664Y-5887484D01*
X8926664Y-5887484D02*
X9050474Y-5887484D01*
X9279045Y-5877960D02*
X9298093Y-5887484D01*
X9298093Y-5887484D02*
X9336188Y-5887484D01*
X9336188Y-5887484D02*
X9355236Y-5877960D01*
X9355236Y-5877960D02*
X9364759Y-5858912D01*
X9364759Y-5858912D02*
X9364759Y-5849388D01*
X9364759Y-5849388D02*
X9355236Y-5830341D01*
X9355236Y-5830341D02*
X9336188Y-5820817D01*
X9336188Y-5820817D02*
X9307616Y-5820817D01*
X9307616Y-5820817D02*
X9288569Y-5811293D01*
X9288569Y-5811293D02*
X9279045Y-5792246D01*
X9279045Y-5792246D02*
X9279045Y-5782722D01*
X9279045Y-5782722D02*
X9288569Y-5763674D01*
X9288569Y-5763674D02*
X9307616Y-5754150D01*
X9307616Y-5754150D02*
X9336188Y-5754150D01*
X9336188Y-5754150D02*
X9355236Y-5763674D01*
X9479045Y-5887484D02*
X9459997Y-5877960D01*
X9459997Y-5877960D02*
X9450474Y-5858912D01*
X9450474Y-5858912D02*
X9450474Y-5687484D01*
X9583807Y-5887484D02*
X9564759Y-5877960D01*
X9564759Y-5877960D02*
X9555236Y-5868436D01*
X9555236Y-5868436D02*
X9545712Y-5849388D01*
X9545712Y-5849388D02*
X9545712Y-5792246D01*
X9545712Y-5792246D02*
X9555236Y-5773198D01*
X9555236Y-5773198D02*
X9564759Y-5763674D01*
X9564759Y-5763674D02*
X9583807Y-5754150D01*
X9583807Y-5754150D02*
X9612378Y-5754150D01*
X9612378Y-5754150D02*
X9631426Y-5763674D01*
X9631426Y-5763674D02*
X9640950Y-5773198D01*
X9640950Y-5773198D02*
X9650474Y-5792246D01*
X9650474Y-5792246D02*
X9650474Y-5849388D01*
X9650474Y-5849388D02*
X9640950Y-5868436D01*
X9640950Y-5868436D02*
X9631426Y-5877960D01*
X9631426Y-5877960D02*
X9612378Y-5887484D01*
X9612378Y-5887484D02*
X9583807Y-5887484D01*
X9707617Y-5754150D02*
X9783807Y-5754150D01*
X9736188Y-5687484D02*
X9736188Y-5858912D01*
X9736188Y-5858912D02*
X9745712Y-5877960D01*
X9745712Y-5877960D02*
X9764759Y-5887484D01*
X9764759Y-5887484D02*
X9783807Y-5887484D01*
X9840950Y-5877960D02*
X9859997Y-5887484D01*
X9859997Y-5887484D02*
X9898093Y-5887484D01*
X9898093Y-5887484D02*
X9917140Y-5877960D01*
X9917140Y-5877960D02*
X9926664Y-5858912D01*
X9926664Y-5858912D02*
X9926664Y-5849388D01*
X9926664Y-5849388D02*
X9917140Y-5830341D01*
X9917140Y-5830341D02*
X9898093Y-5820817D01*
X9898093Y-5820817D02*
X9869521Y-5820817D01*
X9869521Y-5820817D02*
X9850474Y-5811293D01*
X9850474Y-5811293D02*
X9840950Y-5792246D01*
X9840950Y-5792246D02*
X9840950Y-5782722D01*
X9840950Y-5782722D02*
X9850474Y-5763674D01*
X9850474Y-5763674D02*
X9869521Y-5754150D01*
X9869521Y-5754150D02*
X9898093Y-5754150D01*
X9898093Y-5754150D02*
X9917140Y-5763674D01*
X9993331Y-5963674D02*
X10002855Y-5954150D01*
X10002855Y-5954150D02*
X10021902Y-5925579D01*
X10021902Y-5925579D02*
X10031426Y-5906531D01*
X10031426Y-5906531D02*
X10040950Y-5877960D01*
X10040950Y-5877960D02*
X10050474Y-5830341D01*
X10050474Y-5830341D02*
X10050474Y-5792246D01*
X10050474Y-5792246D02*
X10040950Y-5744627D01*
X10040950Y-5744627D02*
X10031426Y-5716055D01*
X10031426Y-5716055D02*
X10021902Y-5697008D01*
X10021902Y-5697008D02*
X10002855Y-5668436D01*
X10002855Y-5668436D02*
X9993331Y-5658912D01*
D12*
X3556720Y-6017500D02*
X3556720Y-6102500D01*
X3514220Y-6060000D02*
X3599220Y-6060000D01*
D11*
X3898092Y-5951484D02*
X3917140Y-5951484D01*
X3917140Y-5951484D02*
X3936187Y-5961008D01*
X3936187Y-5961008D02*
X3945711Y-5970531D01*
X3945711Y-5970531D02*
X3955235Y-5989579D01*
X3955235Y-5989579D02*
X3964759Y-6027674D01*
X3964759Y-6027674D02*
X3964759Y-6075293D01*
X3964759Y-6075293D02*
X3955235Y-6113388D01*
X3955235Y-6113388D02*
X3945711Y-6132436D01*
X3945711Y-6132436D02*
X3936187Y-6141960D01*
X3936187Y-6141960D02*
X3917140Y-6151484D01*
X3917140Y-6151484D02*
X3898092Y-6151484D01*
X3898092Y-6151484D02*
X3879044Y-6141960D01*
X3879044Y-6141960D02*
X3869521Y-6132436D01*
X3869521Y-6132436D02*
X3859997Y-6113388D01*
X3859997Y-6113388D02*
X3850473Y-6075293D01*
X3850473Y-6075293D02*
X3850473Y-6027674D01*
X3850473Y-6027674D02*
X3859997Y-5989579D01*
X3859997Y-5989579D02*
X3869521Y-5970531D01*
X3869521Y-5970531D02*
X3879044Y-5961008D01*
X3879044Y-5961008D02*
X3898092Y-5951484D01*
X4050473Y-6132436D02*
X4059997Y-6141960D01*
X4059997Y-6141960D02*
X4050473Y-6151484D01*
X4050473Y-6151484D02*
X4040949Y-6141960D01*
X4040949Y-6141960D02*
X4050473Y-6132436D01*
X4050473Y-6132436D02*
X4050473Y-6151484D01*
X4174282Y-6037198D02*
X4155235Y-6027674D01*
X4155235Y-6027674D02*
X4145711Y-6018150D01*
X4145711Y-6018150D02*
X4136187Y-5999103D01*
X4136187Y-5999103D02*
X4136187Y-5989579D01*
X4136187Y-5989579D02*
X4145711Y-5970531D01*
X4145711Y-5970531D02*
X4155235Y-5961008D01*
X4155235Y-5961008D02*
X4174282Y-5951484D01*
X4174282Y-5951484D02*
X4212378Y-5951484D01*
X4212378Y-5951484D02*
X4231425Y-5961008D01*
X4231425Y-5961008D02*
X4240949Y-5970531D01*
X4240949Y-5970531D02*
X4250473Y-5989579D01*
X4250473Y-5989579D02*
X4250473Y-5999103D01*
X4250473Y-5999103D02*
X4240949Y-6018150D01*
X4240949Y-6018150D02*
X4231425Y-6027674D01*
X4231425Y-6027674D02*
X4212378Y-6037198D01*
X4212378Y-6037198D02*
X4174282Y-6037198D01*
X4174282Y-6037198D02*
X4155235Y-6046722D01*
X4155235Y-6046722D02*
X4145711Y-6056246D01*
X4145711Y-6056246D02*
X4136187Y-6075293D01*
X4136187Y-6075293D02*
X4136187Y-6113388D01*
X4136187Y-6113388D02*
X4145711Y-6132436D01*
X4145711Y-6132436D02*
X4155235Y-6141960D01*
X4155235Y-6141960D02*
X4174282Y-6151484D01*
X4174282Y-6151484D02*
X4212378Y-6151484D01*
X4212378Y-6151484D02*
X4231425Y-6141960D01*
X4231425Y-6141960D02*
X4240949Y-6132436D01*
X4240949Y-6132436D02*
X4250473Y-6113388D01*
X4250473Y-6113388D02*
X4250473Y-6075293D01*
X4250473Y-6075293D02*
X4240949Y-6056246D01*
X4240949Y-6056246D02*
X4231425Y-6046722D01*
X4231425Y-6046722D02*
X4212378Y-6037198D01*
X4431425Y-5951484D02*
X4336187Y-5951484D01*
X4336187Y-5951484D02*
X4326664Y-6046722D01*
X4326664Y-6046722D02*
X4336187Y-6037198D01*
X4336187Y-6037198D02*
X4355235Y-6027674D01*
X4355235Y-6027674D02*
X4402854Y-6027674D01*
X4402854Y-6027674D02*
X4421902Y-6037198D01*
X4421902Y-6037198D02*
X4431425Y-6046722D01*
X4431425Y-6046722D02*
X4440949Y-6065769D01*
X4440949Y-6065769D02*
X4440949Y-6113388D01*
X4440949Y-6113388D02*
X4431425Y-6132436D01*
X4431425Y-6132436D02*
X4421902Y-6141960D01*
X4421902Y-6141960D02*
X4402854Y-6151484D01*
X4402854Y-6151484D02*
X4355235Y-6151484D01*
X4355235Y-6151484D02*
X4336187Y-6141960D01*
X4336187Y-6141960D02*
X4326664Y-6132436D01*
X4564759Y-5951484D02*
X4583806Y-5951484D01*
X4583806Y-5951484D02*
X4602854Y-5961008D01*
X4602854Y-5961008D02*
X4612378Y-5970531D01*
X4612378Y-5970531D02*
X4621902Y-5989579D01*
X4621902Y-5989579D02*
X4631425Y-6027674D01*
X4631425Y-6027674D02*
X4631425Y-6075293D01*
X4631425Y-6075293D02*
X4621902Y-6113388D01*
X4621902Y-6113388D02*
X4612378Y-6132436D01*
X4612378Y-6132436D02*
X4602854Y-6141960D01*
X4602854Y-6141960D02*
X4583806Y-6151484D01*
X4583806Y-6151484D02*
X4564759Y-6151484D01*
X4564759Y-6151484D02*
X4545711Y-6141960D01*
X4545711Y-6141960D02*
X4536187Y-6132436D01*
X4536187Y-6132436D02*
X4526664Y-6113388D01*
X4526664Y-6113388D02*
X4517140Y-6075293D01*
X4517140Y-6075293D02*
X4517140Y-6027674D01*
X4517140Y-6027674D02*
X4526664Y-5989579D01*
X4526664Y-5989579D02*
X4536187Y-5970531D01*
X4536187Y-5970531D02*
X4545711Y-5961008D01*
X4545711Y-5961008D02*
X4564759Y-5951484D01*
X4717140Y-6151484D02*
X4717140Y-6018150D01*
X4717140Y-6037198D02*
X4726664Y-6027674D01*
X4726664Y-6027674D02*
X4745711Y-6018150D01*
X4745711Y-6018150D02*
X4774283Y-6018150D01*
X4774283Y-6018150D02*
X4793330Y-6027674D01*
X4793330Y-6027674D02*
X4802854Y-6046722D01*
X4802854Y-6046722D02*
X4802854Y-6151484D01*
X4802854Y-6046722D02*
X4812378Y-6027674D01*
X4812378Y-6027674D02*
X4831425Y-6018150D01*
X4831425Y-6018150D02*
X4859997Y-6018150D01*
X4859997Y-6018150D02*
X4879045Y-6027674D01*
X4879045Y-6027674D02*
X4888568Y-6046722D01*
X4888568Y-6046722D02*
X4888568Y-6151484D01*
X4983806Y-6151484D02*
X4983806Y-6018150D01*
X4983806Y-6037198D02*
X4993330Y-6027674D01*
X4993330Y-6027674D02*
X5012378Y-6018150D01*
X5012378Y-6018150D02*
X5040949Y-6018150D01*
X5040949Y-6018150D02*
X5059997Y-6027674D01*
X5059997Y-6027674D02*
X5069521Y-6046722D01*
X5069521Y-6046722D02*
X5069521Y-6151484D01*
X5069521Y-6046722D02*
X5079045Y-6027674D01*
X5079045Y-6027674D02*
X5098092Y-6018150D01*
X5098092Y-6018150D02*
X5126664Y-6018150D01*
X5126664Y-6018150D02*
X5145711Y-6027674D01*
X5145711Y-6027674D02*
X5155235Y-6046722D01*
X5155235Y-6046722D02*
X5155235Y-6151484D01*
X5545711Y-5941960D02*
X5374283Y-6199103D01*
X5802854Y-5951484D02*
X5821902Y-5951484D01*
X5821902Y-5951484D02*
X5840949Y-5961008D01*
X5840949Y-5961008D02*
X5850473Y-5970531D01*
X5850473Y-5970531D02*
X5859997Y-5989579D01*
X5859997Y-5989579D02*
X5869521Y-6027674D01*
X5869521Y-6027674D02*
X5869521Y-6075293D01*
X5869521Y-6075293D02*
X5859997Y-6113388D01*
X5859997Y-6113388D02*
X5850473Y-6132436D01*
X5850473Y-6132436D02*
X5840949Y-6141960D01*
X5840949Y-6141960D02*
X5821902Y-6151484D01*
X5821902Y-6151484D02*
X5802854Y-6151484D01*
X5802854Y-6151484D02*
X5783806Y-6141960D01*
X5783806Y-6141960D02*
X5774283Y-6132436D01*
X5774283Y-6132436D02*
X5764759Y-6113388D01*
X5764759Y-6113388D02*
X5755235Y-6075293D01*
X5755235Y-6075293D02*
X5755235Y-6027674D01*
X5755235Y-6027674D02*
X5764759Y-5989579D01*
X5764759Y-5989579D02*
X5774283Y-5970531D01*
X5774283Y-5970531D02*
X5783806Y-5961008D01*
X5783806Y-5961008D02*
X5802854Y-5951484D01*
X5955235Y-6132436D02*
X5964759Y-6141960D01*
X5964759Y-6141960D02*
X5955235Y-6151484D01*
X5955235Y-6151484D02*
X5945711Y-6141960D01*
X5945711Y-6141960D02*
X5955235Y-6132436D01*
X5955235Y-6132436D02*
X5955235Y-6151484D01*
X6088568Y-5951484D02*
X6107616Y-5951484D01*
X6107616Y-5951484D02*
X6126664Y-5961008D01*
X6126664Y-5961008D02*
X6136187Y-5970531D01*
X6136187Y-5970531D02*
X6145711Y-5989579D01*
X6145711Y-5989579D02*
X6155235Y-6027674D01*
X6155235Y-6027674D02*
X6155235Y-6075293D01*
X6155235Y-6075293D02*
X6145711Y-6113388D01*
X6145711Y-6113388D02*
X6136187Y-6132436D01*
X6136187Y-6132436D02*
X6126664Y-6141960D01*
X6126664Y-6141960D02*
X6107616Y-6151484D01*
X6107616Y-6151484D02*
X6088568Y-6151484D01*
X6088568Y-6151484D02*
X6069521Y-6141960D01*
X6069521Y-6141960D02*
X6059997Y-6132436D01*
X6059997Y-6132436D02*
X6050473Y-6113388D01*
X6050473Y-6113388D02*
X6040949Y-6075293D01*
X6040949Y-6075293D02*
X6040949Y-6027674D01*
X6040949Y-6027674D02*
X6050473Y-5989579D01*
X6050473Y-5989579D02*
X6059997Y-5970531D01*
X6059997Y-5970531D02*
X6069521Y-5961008D01*
X6069521Y-5961008D02*
X6088568Y-5951484D01*
X6221902Y-5951484D02*
X6345711Y-5951484D01*
X6345711Y-5951484D02*
X6279045Y-6027674D01*
X6279045Y-6027674D02*
X6307616Y-6027674D01*
X6307616Y-6027674D02*
X6326664Y-6037198D01*
X6326664Y-6037198D02*
X6336187Y-6046722D01*
X6336187Y-6046722D02*
X6345711Y-6065769D01*
X6345711Y-6065769D02*
X6345711Y-6113388D01*
X6345711Y-6113388D02*
X6336187Y-6132436D01*
X6336187Y-6132436D02*
X6326664Y-6141960D01*
X6326664Y-6141960D02*
X6307616Y-6151484D01*
X6307616Y-6151484D02*
X6250473Y-6151484D01*
X6250473Y-6151484D02*
X6231426Y-6141960D01*
X6231426Y-6141960D02*
X6221902Y-6132436D01*
X6412378Y-5951484D02*
X6536187Y-5951484D01*
X6536187Y-5951484D02*
X6469521Y-6027674D01*
X6469521Y-6027674D02*
X6498092Y-6027674D01*
X6498092Y-6027674D02*
X6517140Y-6037198D01*
X6517140Y-6037198D02*
X6526664Y-6046722D01*
X6526664Y-6046722D02*
X6536187Y-6065769D01*
X6536187Y-6065769D02*
X6536187Y-6113388D01*
X6536187Y-6113388D02*
X6526664Y-6132436D01*
X6526664Y-6132436D02*
X6517140Y-6141960D01*
X6517140Y-6141960D02*
X6498092Y-6151484D01*
X6498092Y-6151484D02*
X6440949Y-6151484D01*
X6440949Y-6151484D02*
X6421902Y-6141960D01*
X6421902Y-6141960D02*
X6412378Y-6132436D01*
X6717140Y-5951484D02*
X6621902Y-5951484D01*
X6621902Y-5951484D02*
X6612378Y-6046722D01*
X6612378Y-6046722D02*
X6621902Y-6037198D01*
X6621902Y-6037198D02*
X6640949Y-6027674D01*
X6640949Y-6027674D02*
X6688568Y-6027674D01*
X6688568Y-6027674D02*
X6707616Y-6037198D01*
X6707616Y-6037198D02*
X6717140Y-6046722D01*
X6717140Y-6046722D02*
X6726664Y-6065769D01*
X6726664Y-6065769D02*
X6726664Y-6113388D01*
X6726664Y-6113388D02*
X6717140Y-6132436D01*
X6717140Y-6132436D02*
X6707616Y-6141960D01*
X6707616Y-6141960D02*
X6688568Y-6151484D01*
X6688568Y-6151484D02*
X6640949Y-6151484D01*
X6640949Y-6151484D02*
X6621902Y-6141960D01*
X6621902Y-6141960D02*
X6612378Y-6132436D01*
X6802854Y-5951484D02*
X6802854Y-5989579D01*
X6879045Y-5951484D02*
X6879045Y-5989579D01*
X7174283Y-6227674D02*
X7164759Y-6218150D01*
X7164759Y-6218150D02*
X7145711Y-6189579D01*
X7145711Y-6189579D02*
X7136188Y-6170531D01*
X7136188Y-6170531D02*
X7126664Y-6141960D01*
X7126664Y-6141960D02*
X7117140Y-6094341D01*
X7117140Y-6094341D02*
X7117140Y-6056246D01*
X7117140Y-6056246D02*
X7126664Y-6008627D01*
X7126664Y-6008627D02*
X7136188Y-5980055D01*
X7136188Y-5980055D02*
X7145711Y-5961008D01*
X7145711Y-5961008D02*
X7164759Y-5932436D01*
X7164759Y-5932436D02*
X7174283Y-5922912D01*
X7240949Y-5970531D02*
X7250473Y-5961008D01*
X7250473Y-5961008D02*
X7269521Y-5951484D01*
X7269521Y-5951484D02*
X7317140Y-5951484D01*
X7317140Y-5951484D02*
X7336188Y-5961008D01*
X7336188Y-5961008D02*
X7345711Y-5970531D01*
X7345711Y-5970531D02*
X7355235Y-5989579D01*
X7355235Y-5989579D02*
X7355235Y-6008627D01*
X7355235Y-6008627D02*
X7345711Y-6037198D01*
X7345711Y-6037198D02*
X7231426Y-6151484D01*
X7231426Y-6151484D02*
X7355235Y-6151484D01*
X7593330Y-6151484D02*
X7593330Y-5951484D01*
X7679045Y-6151484D02*
X7679045Y-6046722D01*
X7679045Y-6046722D02*
X7669521Y-6027674D01*
X7669521Y-6027674D02*
X7650473Y-6018150D01*
X7650473Y-6018150D02*
X7621902Y-6018150D01*
X7621902Y-6018150D02*
X7602854Y-6027674D01*
X7602854Y-6027674D02*
X7593330Y-6037198D01*
X7802854Y-6151484D02*
X7783807Y-6141960D01*
X7783807Y-6141960D02*
X7774283Y-6132436D01*
X7774283Y-6132436D02*
X7764759Y-6113388D01*
X7764759Y-6113388D02*
X7764759Y-6056246D01*
X7764759Y-6056246D02*
X7774283Y-6037198D01*
X7774283Y-6037198D02*
X7783807Y-6027674D01*
X7783807Y-6027674D02*
X7802854Y-6018150D01*
X7802854Y-6018150D02*
X7831426Y-6018150D01*
X7831426Y-6018150D02*
X7850473Y-6027674D01*
X7850473Y-6027674D02*
X7859997Y-6037198D01*
X7859997Y-6037198D02*
X7869521Y-6056246D01*
X7869521Y-6056246D02*
X7869521Y-6113388D01*
X7869521Y-6113388D02*
X7859997Y-6132436D01*
X7859997Y-6132436D02*
X7850473Y-6141960D01*
X7850473Y-6141960D02*
X7831426Y-6151484D01*
X7831426Y-6151484D02*
X7802854Y-6151484D01*
X7983807Y-6151484D02*
X7964759Y-6141960D01*
X7964759Y-6141960D02*
X7955235Y-6122912D01*
X7955235Y-6122912D02*
X7955235Y-5951484D01*
X8136188Y-6141960D02*
X8117140Y-6151484D01*
X8117140Y-6151484D02*
X8079045Y-6151484D01*
X8079045Y-6151484D02*
X8059997Y-6141960D01*
X8059997Y-6141960D02*
X8050473Y-6122912D01*
X8050473Y-6122912D02*
X8050473Y-6046722D01*
X8050473Y-6046722D02*
X8059997Y-6027674D01*
X8059997Y-6027674D02*
X8079045Y-6018150D01*
X8079045Y-6018150D02*
X8117140Y-6018150D01*
X8117140Y-6018150D02*
X8136188Y-6027674D01*
X8136188Y-6027674D02*
X8145711Y-6046722D01*
X8145711Y-6046722D02*
X8145711Y-6065769D01*
X8145711Y-6065769D02*
X8050473Y-6084817D01*
X8221902Y-6141960D02*
X8240950Y-6151484D01*
X8240950Y-6151484D02*
X8279045Y-6151484D01*
X8279045Y-6151484D02*
X8298092Y-6141960D01*
X8298092Y-6141960D02*
X8307616Y-6122912D01*
X8307616Y-6122912D02*
X8307616Y-6113388D01*
X8307616Y-6113388D02*
X8298092Y-6094341D01*
X8298092Y-6094341D02*
X8279045Y-6084817D01*
X8279045Y-6084817D02*
X8250473Y-6084817D01*
X8250473Y-6084817D02*
X8231426Y-6075293D01*
X8231426Y-6075293D02*
X8221902Y-6056246D01*
X8221902Y-6056246D02*
X8221902Y-6046722D01*
X8221902Y-6046722D02*
X8231426Y-6027674D01*
X8231426Y-6027674D02*
X8250473Y-6018150D01*
X8250473Y-6018150D02*
X8279045Y-6018150D01*
X8279045Y-6018150D02*
X8298092Y-6027674D01*
X8374283Y-6227674D02*
X8383807Y-6218150D01*
X8383807Y-6218150D02*
X8402854Y-6189579D01*
X8402854Y-6189579D02*
X8412378Y-6170531D01*
X8412378Y-6170531D02*
X8421902Y-6141960D01*
X8421902Y-6141960D02*
X8431426Y-6094341D01*
X8431426Y-6094341D02*
X8431426Y-6056246D01*
X8431426Y-6056246D02*
X8421902Y-6008627D01*
X8421902Y-6008627D02*
X8412378Y-5980055D01*
X8412378Y-5980055D02*
X8402854Y-5961008D01*
X8402854Y-5961008D02*
X8383807Y-5932436D01*
X8383807Y-5932436D02*
X8374283Y-5922912D01*
D12*
X3584576Y-6359356D02*
X3584576Y-6288644D01*
X3513864Y-6288644D01*
X3513864Y-6359356D01*
X3584576Y-6359356D01*
D11*
X3964759Y-6415484D02*
X3850473Y-6415484D01*
X3907616Y-6415484D02*
X3907616Y-6215484D01*
X3907616Y-6215484D02*
X3888568Y-6244055D01*
X3888568Y-6244055D02*
X3869521Y-6263103D01*
X3869521Y-6263103D02*
X3850473Y-6272627D01*
X4050473Y-6396436D02*
X4059997Y-6405960D01*
X4059997Y-6405960D02*
X4050473Y-6415484D01*
X4050473Y-6415484D02*
X4040949Y-6405960D01*
X4040949Y-6405960D02*
X4050473Y-6396436D01*
X4050473Y-6396436D02*
X4050473Y-6415484D01*
X4183806Y-6215484D02*
X4202854Y-6215484D01*
X4202854Y-6215484D02*
X4221902Y-6225008D01*
X4221902Y-6225008D02*
X4231425Y-6234531D01*
X4231425Y-6234531D02*
X4240949Y-6253579D01*
X4240949Y-6253579D02*
X4250473Y-6291674D01*
X4250473Y-6291674D02*
X4250473Y-6339293D01*
X4250473Y-6339293D02*
X4240949Y-6377388D01*
X4240949Y-6377388D02*
X4231425Y-6396436D01*
X4231425Y-6396436D02*
X4221902Y-6405960D01*
X4221902Y-6405960D02*
X4202854Y-6415484D01*
X4202854Y-6415484D02*
X4183806Y-6415484D01*
X4183806Y-6415484D02*
X4164759Y-6405960D01*
X4164759Y-6405960D02*
X4155235Y-6396436D01*
X4155235Y-6396436D02*
X4145711Y-6377388D01*
X4145711Y-6377388D02*
X4136187Y-6339293D01*
X4136187Y-6339293D02*
X4136187Y-6291674D01*
X4136187Y-6291674D02*
X4145711Y-6253579D01*
X4145711Y-6253579D02*
X4155235Y-6234531D01*
X4155235Y-6234531D02*
X4164759Y-6225008D01*
X4164759Y-6225008D02*
X4183806Y-6215484D01*
X4374283Y-6215484D02*
X4393330Y-6215484D01*
X4393330Y-6215484D02*
X4412378Y-6225008D01*
X4412378Y-6225008D02*
X4421902Y-6234531D01*
X4421902Y-6234531D02*
X4431425Y-6253579D01*
X4431425Y-6253579D02*
X4440949Y-6291674D01*
X4440949Y-6291674D02*
X4440949Y-6339293D01*
X4440949Y-6339293D02*
X4431425Y-6377388D01*
X4431425Y-6377388D02*
X4421902Y-6396436D01*
X4421902Y-6396436D02*
X4412378Y-6405960D01*
X4412378Y-6405960D02*
X4393330Y-6415484D01*
X4393330Y-6415484D02*
X4374283Y-6415484D01*
X4374283Y-6415484D02*
X4355235Y-6405960D01*
X4355235Y-6405960D02*
X4345711Y-6396436D01*
X4345711Y-6396436D02*
X4336187Y-6377388D01*
X4336187Y-6377388D02*
X4326664Y-6339293D01*
X4326664Y-6339293D02*
X4326664Y-6291674D01*
X4326664Y-6291674D02*
X4336187Y-6253579D01*
X4336187Y-6253579D02*
X4345711Y-6234531D01*
X4345711Y-6234531D02*
X4355235Y-6225008D01*
X4355235Y-6225008D02*
X4374283Y-6215484D01*
X4564759Y-6215484D02*
X4583806Y-6215484D01*
X4583806Y-6215484D02*
X4602854Y-6225008D01*
X4602854Y-6225008D02*
X4612378Y-6234531D01*
X4612378Y-6234531D02*
X4621902Y-6253579D01*
X4621902Y-6253579D02*
X4631425Y-6291674D01*
X4631425Y-6291674D02*
X4631425Y-6339293D01*
X4631425Y-6339293D02*
X4621902Y-6377388D01*
X4621902Y-6377388D02*
X4612378Y-6396436D01*
X4612378Y-6396436D02*
X4602854Y-6405960D01*
X4602854Y-6405960D02*
X4583806Y-6415484D01*
X4583806Y-6415484D02*
X4564759Y-6415484D01*
X4564759Y-6415484D02*
X4545711Y-6405960D01*
X4545711Y-6405960D02*
X4536187Y-6396436D01*
X4536187Y-6396436D02*
X4526664Y-6377388D01*
X4526664Y-6377388D02*
X4517140Y-6339293D01*
X4517140Y-6339293D02*
X4517140Y-6291674D01*
X4517140Y-6291674D02*
X4526664Y-6253579D01*
X4526664Y-6253579D02*
X4536187Y-6234531D01*
X4536187Y-6234531D02*
X4545711Y-6225008D01*
X4545711Y-6225008D02*
X4564759Y-6215484D01*
X4717140Y-6415484D02*
X4717140Y-6282150D01*
X4717140Y-6301198D02*
X4726664Y-6291674D01*
X4726664Y-6291674D02*
X4745711Y-6282150D01*
X4745711Y-6282150D02*
X4774283Y-6282150D01*
X4774283Y-6282150D02*
X4793330Y-6291674D01*
X4793330Y-6291674D02*
X4802854Y-6310722D01*
X4802854Y-6310722D02*
X4802854Y-6415484D01*
X4802854Y-6310722D02*
X4812378Y-6291674D01*
X4812378Y-6291674D02*
X4831425Y-6282150D01*
X4831425Y-6282150D02*
X4859997Y-6282150D01*
X4859997Y-6282150D02*
X4879045Y-6291674D01*
X4879045Y-6291674D02*
X4888568Y-6310722D01*
X4888568Y-6310722D02*
X4888568Y-6415484D01*
X4983806Y-6415484D02*
X4983806Y-6282150D01*
X4983806Y-6301198D02*
X4993330Y-6291674D01*
X4993330Y-6291674D02*
X5012378Y-6282150D01*
X5012378Y-6282150D02*
X5040949Y-6282150D01*
X5040949Y-6282150D02*
X5059997Y-6291674D01*
X5059997Y-6291674D02*
X5069521Y-6310722D01*
X5069521Y-6310722D02*
X5069521Y-6415484D01*
X5069521Y-6310722D02*
X5079045Y-6291674D01*
X5079045Y-6291674D02*
X5098092Y-6282150D01*
X5098092Y-6282150D02*
X5126664Y-6282150D01*
X5126664Y-6282150D02*
X5145711Y-6291674D01*
X5145711Y-6291674D02*
X5155235Y-6310722D01*
X5155235Y-6310722D02*
X5155235Y-6415484D01*
X5545711Y-6205960D02*
X5374283Y-6463103D01*
X5802854Y-6215484D02*
X5821902Y-6215484D01*
X5821902Y-6215484D02*
X5840949Y-6225008D01*
X5840949Y-6225008D02*
X5850473Y-6234531D01*
X5850473Y-6234531D02*
X5859997Y-6253579D01*
X5859997Y-6253579D02*
X5869521Y-6291674D01*
X5869521Y-6291674D02*
X5869521Y-6339293D01*
X5869521Y-6339293D02*
X5859997Y-6377388D01*
X5859997Y-6377388D02*
X5850473Y-6396436D01*
X5850473Y-6396436D02*
X5840949Y-6405960D01*
X5840949Y-6405960D02*
X5821902Y-6415484D01*
X5821902Y-6415484D02*
X5802854Y-6415484D01*
X5802854Y-6415484D02*
X5783806Y-6405960D01*
X5783806Y-6405960D02*
X5774283Y-6396436D01*
X5774283Y-6396436D02*
X5764759Y-6377388D01*
X5764759Y-6377388D02*
X5755235Y-6339293D01*
X5755235Y-6339293D02*
X5755235Y-6291674D01*
X5755235Y-6291674D02*
X5764759Y-6253579D01*
X5764759Y-6253579D02*
X5774283Y-6234531D01*
X5774283Y-6234531D02*
X5783806Y-6225008D01*
X5783806Y-6225008D02*
X5802854Y-6215484D01*
X5955235Y-6396436D02*
X5964759Y-6405960D01*
X5964759Y-6405960D02*
X5955235Y-6415484D01*
X5955235Y-6415484D02*
X5945711Y-6405960D01*
X5945711Y-6405960D02*
X5955235Y-6396436D01*
X5955235Y-6396436D02*
X5955235Y-6415484D01*
X6088568Y-6215484D02*
X6107616Y-6215484D01*
X6107616Y-6215484D02*
X6126664Y-6225008D01*
X6126664Y-6225008D02*
X6136187Y-6234531D01*
X6136187Y-6234531D02*
X6145711Y-6253579D01*
X6145711Y-6253579D02*
X6155235Y-6291674D01*
X6155235Y-6291674D02*
X6155235Y-6339293D01*
X6155235Y-6339293D02*
X6145711Y-6377388D01*
X6145711Y-6377388D02*
X6136187Y-6396436D01*
X6136187Y-6396436D02*
X6126664Y-6405960D01*
X6126664Y-6405960D02*
X6107616Y-6415484D01*
X6107616Y-6415484D02*
X6088568Y-6415484D01*
X6088568Y-6415484D02*
X6069521Y-6405960D01*
X6069521Y-6405960D02*
X6059997Y-6396436D01*
X6059997Y-6396436D02*
X6050473Y-6377388D01*
X6050473Y-6377388D02*
X6040949Y-6339293D01*
X6040949Y-6339293D02*
X6040949Y-6291674D01*
X6040949Y-6291674D02*
X6050473Y-6253579D01*
X6050473Y-6253579D02*
X6059997Y-6234531D01*
X6059997Y-6234531D02*
X6069521Y-6225008D01*
X6069521Y-6225008D02*
X6088568Y-6215484D01*
X6221902Y-6215484D02*
X6345711Y-6215484D01*
X6345711Y-6215484D02*
X6279045Y-6291674D01*
X6279045Y-6291674D02*
X6307616Y-6291674D01*
X6307616Y-6291674D02*
X6326664Y-6301198D01*
X6326664Y-6301198D02*
X6336187Y-6310722D01*
X6336187Y-6310722D02*
X6345711Y-6329769D01*
X6345711Y-6329769D02*
X6345711Y-6377388D01*
X6345711Y-6377388D02*
X6336187Y-6396436D01*
X6336187Y-6396436D02*
X6326664Y-6405960D01*
X6326664Y-6405960D02*
X6307616Y-6415484D01*
X6307616Y-6415484D02*
X6250473Y-6415484D01*
X6250473Y-6415484D02*
X6231426Y-6405960D01*
X6231426Y-6405960D02*
X6221902Y-6396436D01*
X6440949Y-6415484D02*
X6479045Y-6415484D01*
X6479045Y-6415484D02*
X6498092Y-6405960D01*
X6498092Y-6405960D02*
X6507616Y-6396436D01*
X6507616Y-6396436D02*
X6526664Y-6367865D01*
X6526664Y-6367865D02*
X6536187Y-6329769D01*
X6536187Y-6329769D02*
X6536187Y-6253579D01*
X6536187Y-6253579D02*
X6526664Y-6234531D01*
X6526664Y-6234531D02*
X6517140Y-6225008D01*
X6517140Y-6225008D02*
X6498092Y-6215484D01*
X6498092Y-6215484D02*
X6459997Y-6215484D01*
X6459997Y-6215484D02*
X6440949Y-6225008D01*
X6440949Y-6225008D02*
X6431426Y-6234531D01*
X6431426Y-6234531D02*
X6421902Y-6253579D01*
X6421902Y-6253579D02*
X6421902Y-6301198D01*
X6421902Y-6301198D02*
X6431426Y-6320246D01*
X6431426Y-6320246D02*
X6440949Y-6329769D01*
X6440949Y-6329769D02*
X6459997Y-6339293D01*
X6459997Y-6339293D02*
X6498092Y-6339293D01*
X6498092Y-6339293D02*
X6517140Y-6329769D01*
X6517140Y-6329769D02*
X6526664Y-6320246D01*
X6526664Y-6320246D02*
X6536187Y-6301198D01*
X6707616Y-6282150D02*
X6707616Y-6415484D01*
X6659997Y-6205960D02*
X6612378Y-6348817D01*
X6612378Y-6348817D02*
X6736187Y-6348817D01*
X6802854Y-6215484D02*
X6802854Y-6253579D01*
X6879045Y-6215484D02*
X6879045Y-6253579D01*
X7174283Y-6491674D02*
X7164759Y-6482150D01*
X7164759Y-6482150D02*
X7145711Y-6453579D01*
X7145711Y-6453579D02*
X7136188Y-6434531D01*
X7136188Y-6434531D02*
X7126664Y-6405960D01*
X7126664Y-6405960D02*
X7117140Y-6358341D01*
X7117140Y-6358341D02*
X7117140Y-6320246D01*
X7117140Y-6320246D02*
X7126664Y-6272627D01*
X7126664Y-6272627D02*
X7136188Y-6244055D01*
X7136188Y-6244055D02*
X7145711Y-6225008D01*
X7145711Y-6225008D02*
X7164759Y-6196436D01*
X7164759Y-6196436D02*
X7174283Y-6186912D01*
X7355235Y-6415484D02*
X7240949Y-6415484D01*
X7298092Y-6415484D02*
X7298092Y-6215484D01*
X7298092Y-6215484D02*
X7279045Y-6244055D01*
X7279045Y-6244055D02*
X7259997Y-6263103D01*
X7259997Y-6263103D02*
X7240949Y-6272627D01*
X7593330Y-6415484D02*
X7593330Y-6215484D01*
X7679045Y-6415484D02*
X7679045Y-6310722D01*
X7679045Y-6310722D02*
X7669521Y-6291674D01*
X7669521Y-6291674D02*
X7650473Y-6282150D01*
X7650473Y-6282150D02*
X7621902Y-6282150D01*
X7621902Y-6282150D02*
X7602854Y-6291674D01*
X7602854Y-6291674D02*
X7593330Y-6301198D01*
X7802854Y-6415484D02*
X7783807Y-6405960D01*
X7783807Y-6405960D02*
X7774283Y-6396436D01*
X7774283Y-6396436D02*
X7764759Y-6377388D01*
X7764759Y-6377388D02*
X7764759Y-6320246D01*
X7764759Y-6320246D02*
X7774283Y-6301198D01*
X7774283Y-6301198D02*
X7783807Y-6291674D01*
X7783807Y-6291674D02*
X7802854Y-6282150D01*
X7802854Y-6282150D02*
X7831426Y-6282150D01*
X7831426Y-6282150D02*
X7850473Y-6291674D01*
X7850473Y-6291674D02*
X7859997Y-6301198D01*
X7859997Y-6301198D02*
X7869521Y-6320246D01*
X7869521Y-6320246D02*
X7869521Y-6377388D01*
X7869521Y-6377388D02*
X7859997Y-6396436D01*
X7859997Y-6396436D02*
X7850473Y-6405960D01*
X7850473Y-6405960D02*
X7831426Y-6415484D01*
X7831426Y-6415484D02*
X7802854Y-6415484D01*
X7983807Y-6415484D02*
X7964759Y-6405960D01*
X7964759Y-6405960D02*
X7955235Y-6386912D01*
X7955235Y-6386912D02*
X7955235Y-6215484D01*
X8136188Y-6405960D02*
X8117140Y-6415484D01*
X8117140Y-6415484D02*
X8079045Y-6415484D01*
X8079045Y-6415484D02*
X8059997Y-6405960D01*
X8059997Y-6405960D02*
X8050473Y-6386912D01*
X8050473Y-6386912D02*
X8050473Y-6310722D01*
X8050473Y-6310722D02*
X8059997Y-6291674D01*
X8059997Y-6291674D02*
X8079045Y-6282150D01*
X8079045Y-6282150D02*
X8117140Y-6282150D01*
X8117140Y-6282150D02*
X8136188Y-6291674D01*
X8136188Y-6291674D02*
X8145711Y-6310722D01*
X8145711Y-6310722D02*
X8145711Y-6329769D01*
X8145711Y-6329769D02*
X8050473Y-6348817D01*
X8212378Y-6491674D02*
X8221902Y-6482150D01*
X8221902Y-6482150D02*
X8240950Y-6453579D01*
X8240950Y-6453579D02*
X8250473Y-6434531D01*
X8250473Y-6434531D02*
X8259997Y-6405960D01*
X8259997Y-6405960D02*
X8269521Y-6358341D01*
X8269521Y-6358341D02*
X8269521Y-6320246D01*
X8269521Y-6320246D02*
X8259997Y-6272627D01*
X8259997Y-6272627D02*
X8250473Y-6244055D01*
X8250473Y-6244055D02*
X8240950Y-6225008D01*
X8240950Y-6225008D02*
X8221902Y-6196436D01*
X8221902Y-6196436D02*
X8212378Y-6186912D01*
M02*
